<svg xmlns="http://www.w3.org/2000/svg" viewBox="0 0 1920 400" preserveAspectRatio="xMidYMax slice">
  <defs>
    <!-- Nebel-Verlauf von oben transparent nach unten solid -->
    <linearGradient id="mist" x1="0" y1="0" x2="0" y2="1">
      <stop offset="0" stop-color="#22c55e" stop-opacity="0"/>
      <stop offset="0.4" stop-color="#22c55e" stop-opacity="0.15"/>
      <stop offset="1" stop-color="#22c55e" stop-opacity="0.6"/>
    </linearGradient>
  </defs>

  <!-- ═══ HINTERE REIHE: Klein, hell, neblig (Tiefe 3) ═══ -->
  <g fill="#22c55e" opacity="0.08">
    <!-- Detaillierte Tannen mit Ästen -->
    <path d="M20,400 L28,380 L18,382 L30,355 L15,360 L32,328 L20,334 L35,295 L22,302 L38,260 L30,268 L42,225 L35,232 L50,190 L65,232 L58,225 L70,268 L62,260 L78,302 L65,295 L80,334 L68,328 L85,360 L70,355 L82,382 L72,380 L80,400Z"/>
    <path d="M125,400 L132,385 L124,386 L134,365 L120,368 L136,340 L126,344 L140,310 L130,315 L144,280 L138,285 L150,250 L162,285 L156,280 L170,315 L160,310 L174,344 L164,340 L180,368 L166,365 L176,386 L168,385 L175,400Z"/>
    <path d="M240,400 L248,378 L238,380 L250,350 L235,356 L253,318 L240,325 L258,282 L248,290 L265,245 L255,255 L272,210 L289,255 L279,245 L296,290 L286,282 L304,325 L291,318 L309,356 L294,350 L306,380 L296,378 L304,400Z"/>
    <path d="M360,400 L366,388 L360,389 L368,372 L358,375 L372,352 L364,355 L376,330 L370,334 L380,308 L375,312 L385,285 L395,312 L390,308 L400,334 L394,330 L406,355 L398,352 L412,375 L402,372 L410,389 L404,388 L410,400Z"/>
    <path d="M475,400 L484,375 L473,378 L488,345 L472,352 L492,310 L478,318 L498,270 L486,280 L505,235 L495,245 L512,200 L529,245 L519,235 L538,280 L526,270 L546,318 L532,310 L552,352 L536,345 L551,378 L540,375 L548,400Z"/>
    <path d="M610,400 L616,386 L608,388 L618,368 L606,372 L622,348 L614,352 L626,325 L620,330 L632,302 L628,306 L638,278 L648,306 L644,302 L656,330 L650,325 L662,352 L654,348 L670,372 L658,368 L668,388 L660,386 L666,400Z"/>
    <path d="M730,400 L740,372 L728,376 L744,340 L726,348 L748,302 L732,312 L755,260 L740,272 L762,218 L750,232 L770,180 L790,232 L778,218 L800,272 L785,260 L808,312 L792,302 L814,348 L796,340 L812,376 L800,372 L810,400Z"/>
    <path d="M870,400 L876,388 L870,389 L878,372 L868,375 L882,350 L874,354 L886,328 L880,332 L890,305 L886,310 L896,282 L906,310 L902,305 L912,332 L906,328 L918,354 L910,350 L924,375 L914,372 L922,389 L916,388 L922,400Z"/>
    <path d="M980,400 L988,380 L978,382 L992,355 L975,360 L995,325 L982,332 L1000,288 L988,296 L1008,250 L998,260 L1015,215 L1032,260 L1022,250 L1042,296 L1030,288 L1048,332 L1035,325 L1055,360 L1038,355 L1052,382 L1042,380 L1050,400Z"/>
    <path d="M1110,400 L1116,386 L1108,388 L1118,365 L1105,370 L1122,342 L1112,348 L1126,315 L1118,322 L1132,285 L1126,292 L1138,255 L1150,292 L1144,285 L1158,322 L1150,315 L1164,348 L1154,342 L1171,370 L1158,365 L1168,388 L1160,386 L1166,400Z"/>
    <path d="M1240,400 L1250,372 L1238,376 L1254,338 L1235,346 L1258,298 L1242,308 L1265,255 L1250,268 L1272,215 L1260,230 L1280,178 L1300,230 L1288,215 L1310,268 L1295,255 L1318,308 L1302,298 L1325,346 L1306,338 L1322,376 L1310,372 L1320,400Z"/>
    <path d="M1380,400 L1386,388 L1380,389 L1388,372 L1378,375 L1392,350 L1384,354 L1396,328 L1390,332 L1400,305 L1396,310 L1406,282 L1416,310 L1412,305 L1422,332 L1416,328 L1428,354 L1420,350 L1434,375 L1424,372 L1432,389 L1426,388 L1432,400Z"/>
    <path d="M1495,400 L1504,378 L1493,380 L1508,348 L1490,355 L1512,315 L1496,324 L1520,275 L1506,286 L1528,238 L1518,250 L1535,205 L1552,250 L1542,238 L1564,286 L1550,275 L1574,324 L1558,315 L1580,355 L1562,348 L1577,380 L1566,378 L1574,400Z"/>
    <path d="M1620,400 L1626,386 L1618,388 L1628,365 L1616,370 L1632,345 L1622,350 L1636,320 L1628,326 L1642,292 L1638,298 L1648,268 L1658,298 L1654,292 L1668,326 L1660,320 L1674,350 L1664,345 L1680,370 L1668,365 L1678,388 L1670,386 L1676,400Z"/>
    <path d="M1748,400 L1758,375 L1746,378 L1762,342 L1742,350 L1766,305 L1750,314 L1774,262 L1758,274 L1782,222 L1770,236 L1790,185 L1810,236 L1798,222 L1822,274 L1806,262 L1830,314 L1814,305 L1838,350 L1818,342 L1834,378 L1822,375 L1832,400Z"/>
    <path d="M1870,400 L1876,388 L1870,389 L1878,372 L1868,375 L1882,348 L1874,352 L1886,325 L1880,330 L1892,302 L1888,306 L1898,278 L1908,306 L1904,302 L1916,330 L1910,325 L1922,352 L1914,348 L1928,375 L1918,372 L1926,389 L1920,400Z"/>
  </g>

  <!-- ═══ MITTLERE REIHE: Mittelgroß (Tiefe 2) ═══ -->
  <g fill="#22c55e" opacity="0.14">
    <path d="M55,400 L55,355 L38,360 L52,320 L32,328 L50,280 L36,290 L54,235 L40,248 L58,195 L48,210 L65,158 L82,210 L72,195 L90,248 L76,235 L94,290 L80,280 L98,328 L78,320 L92,360 L75,355 L75,400Z"/>
    <path d="M180,400 L180,365 L168,368 L178,340 L163,345 L176,310 L166,316 L180,275 L170,284 L185,242 L178,250 L192,210 L206,250 L199,242 L214,284 L204,275 L218,316 L208,310 L221,345 L206,340 L216,368 L204,365 L204,400Z"/>
    <path d="M310,400 L310,348 L290,354 L308,308 L284,318 L306,265 L288,278 L310,218 L294,234 L316,175 L302,195 L325,135 L348,195 L334,175 L356,234 L340,218 L362,278 L344,265 L366,318 L342,308 L360,354 L340,348 L340,400Z"/>
    <path d="M440,400 L440,368 L430,370 L438,348 L425,352 L436,325 L428,330 L442,295 L434,302 L446,268 L440,275 L452,240 L464,275 L458,268 L470,302 L462,295 L476,330 L468,325 L479,352 L466,348 L474,370 L464,368 L464,400Z"/>
    <path d="M560,400 L560,350 L542,356 L558,312 L536,320 L556,270 L540,282 L560,225 L546,240 L568,185 L556,202 L575,148 L594,202 L582,185 L604,240 L590,225 L610,282 L594,270 L614,320 L592,312 L608,356 L590,350 L590,400Z"/>
    <path d="M690,400 L690,370 L680,372 L688,352 L676,355 L686,330 L678,335 L692,302 L684,308 L696,278 L690,284 L702,252 L714,284 L708,278 L720,308 L712,302 L726,335 L718,330 L728,355 L716,352 L724,372 L714,370 L714,400Z"/>
    <path d="M810,400 L810,345 L792,352 L808,305 L786,315 L806,262 L790,275 L812,215 L796,232 L818,178 L806,198 L826,140 L846,198 L834,178 L856,232 L840,215 L862,275 L846,262 L866,315 L844,305 L860,352 L842,345 L842,400Z"/>
    <path d="M950,400 L950,368 L940,370 L948,348 L935,352 L946,322 L938,328 L952,292 L944,298 L956,265 L950,272 L962,238 L974,272 L968,265 L980,298 L972,292 L986,328 L978,322 L989,352 L976,348 L984,370 L974,368 L974,400Z"/>
    <path d="M1080,400 L1080,346 L1060,354 L1078,306 L1054,316 L1076,262 L1058,276 L1082,215 L1066,232 L1088,180 L1076,198 L1095,142 L1114,198 L1102,180 L1124,232 L1108,215 L1132,276 L1114,262 L1136,316 L1112,306 L1130,354 L1110,346 L1110,400Z"/>
    <path d="M1210,400 L1210,370 L1200,372 L1208,350 L1196,354 L1206,326 L1198,332 L1212,296 L1204,304 L1216,272 L1210,278 L1222,245 L1234,278 L1228,272 L1240,304 L1232,296 L1246,332 L1238,326 L1248,354 L1236,350 L1244,372 L1234,370 L1234,400Z"/>
    <path d="M1350,400 L1350,348 L1332,354 L1348,308 L1326,318 L1346,268 L1330,280 L1352,222 L1336,238 L1358,185 L1346,202 L1365,148 L1384,202 L1372,185 L1394,238 L1378,222 L1400,280 L1384,268 L1404,318 L1382,308 L1398,354 L1380,348 L1380,400Z"/>
    <path d="M1490,400 L1490,368 L1480,370 L1488,348 L1476,352 L1486,325 L1478,330 L1492,296 L1484,302 L1496,270 L1490,276 L1502,244 L1514,276 L1508,270 L1520,302 L1512,296 L1526,330 L1518,325 L1528,352 L1516,348 L1524,370 L1514,368 L1514,400Z"/>
    <path d="M1620,400 L1620,345 L1602,352 L1618,308 L1596,316 L1616,265 L1600,278 L1622,220 L1606,236 L1628,182 L1616,200 L1635,145 L1654,200 L1642,182 L1664,236 L1648,220 L1670,278 L1654,265 L1674,316 L1652,308 L1668,352 L1650,345 L1650,400Z"/>
    <path d="M1760,400 L1760,370 L1750,372 L1758,350 L1746,354 L1756,328 L1748,332 L1762,298 L1754,304 L1766,272 L1760,278 L1772,248 L1784,278 L1778,272 L1790,304 L1782,298 L1796,332 L1788,328 L1798,354 L1786,350 L1794,372 L1784,370 L1784,400Z"/>
    <path d="M1880,400 L1880,350 L1864,356 L1878,315 L1858,322 L1876,275 L1862,286 L1882,232 L1868,246 L1888,195 L1878,210 L1895,158 L1912,210 L1902,195 L1922,246 L1908,232 L1928,286 L1914,275 L1932,322 L1912,315 L1926,356 L1910,350 L1910,400Z"/>
  </g>

  <!-- ═══ VORDERSTE REIHE: Groß, dunkel (Tiefe 1) ═══ -->
  <g fill="#22c55e" opacity="0.22">
    <path d="M0,400 L0,340 L-18,348 L-2,298 L-22,308 L-4,252 L-20,265 L2,200 L-14,218 L8,158 L-4,178 L15,115 L34,178 L22,158 L40,218 L24,200 L46,265 L30,252 L48,308 L28,298 L44,348 L26,340 L26,400Z"/>
    <path d="M145,400 L145,352 L130,358 L142,318 L124,326 L140,278 L126,288 L144,232 L130,246 L148,192 L138,208 L155,155 L172,208 L162,192 L180,246 L166,232 L184,288 L170,278 L186,326 L168,318 L180,358 L165,352 L165,400Z"/>
    <path d="M295,400 L295,330 L270,340 L292,278 L262,292 L288,225 L265,242 L295,168 L272,190 L300,122 L282,148 L310,78 L338,148 L320,122 L348,190 L325,168 L355,242 L332,225 L358,292 L328,278 L350,340 L325,330 L325,400Z"/>
    <path d="M430,400 L430,362 L418,366 L428,340 L414,345 L426,315 L416,320 L430,285 L422,292 L434,260 L428,266 L440,232 L452,266 L446,260 L458,292 L450,285 L464,320 L454,315 L466,345 L452,340 L462,366 L450,362 L450,400Z"/>
    <path d="M560,400 L560,332 L538,340 L556,282 L530,294 L552,230 L532,246 L558,175 L538,196 L564,128 L548,152 L572,85 L596,152 L580,128 L606,196 L586,175 L612,246 L592,230 L614,294 L588,282 L606,340 L584,332 L584,400Z"/>
    <path d="M708,400 L708,360 L696,364 L706,338 L692,342 L704,312 L694,318 L710,282 L702,290 L714,258 L708,264 L720,230 L732,264 L726,258 L738,290 L730,282 L744,318 L734,312 L746,342 L732,338 L742,364 L730,360 L730,400Z"/>
    <path d="M855,400 L855,328 L832,338 L852,276 L824,290 L848,222 L828,240 L856,165 L836,188 L862,118 L846,145 L870,75 L894,145 L878,118 L904,188 L884,165 L912,240 L892,222 L916,290 L888,276 L908,338 L885,328 L885,400Z"/>
    <path d="M1000,400 L1000,362 L988,366 L998,340 L984,345 L996,315 L986,320 L1000,285 L992,292 L1004,260 L998,266 L1010,232 L1022,266 L1016,260 L1028,292 L1020,285 L1034,320 L1024,315 L1036,345 L1022,340 L1032,366 L1020,362 L1020,400Z"/>
    <path d="M1145,400 L1145,325 L1120,336 L1142,272 L1112,288 L1138,218 L1115,238 L1148,158 L1126,182 L1155,112 L1138,140 L1162,72 L1186,140 L1169,112 L1198,182 L1175,158 L1208,238 L1185,218 L1211,288 L1181,272 L1203,336 L1178,325 L1178,400Z"/>
    <path d="M1290,400 L1290,358 L1278,362 L1288,336 L1274,340 L1286,310 L1276,316 L1292,280 L1284,288 L1296,255 L1290,262 L1302,228 L1314,262 L1308,255 L1320,288 L1312,280 L1326,316 L1316,310 L1328,340 L1314,336 L1324,362 L1312,358 L1312,400Z"/>
    <path d="M1440,400 L1440,330 L1418,340 L1436,280 L1410,292 L1432,228 L1414,244 L1442,172 L1422,194 L1448,125 L1432,152 L1456,82 L1480,152 L1464,125 L1492,194 L1472,172 L1500,244 L1482,228 L1504,292 L1478,280 L1496,340 L1474,330 L1474,400Z"/>
    <path d="M1585,400 L1585,362 L1574,366 L1583,342 L1570,346 L1581,318 L1572,322 L1587,290 L1579,296 L1591,265 L1585,270 L1596,240 L1607,270 L1601,265 L1613,296 L1605,290 L1620,322 L1611,318 L1622,346 L1609,342 L1618,366 L1607,362 L1607,400Z"/>
    <path d="M1720,400 L1720,326 L1696,336 L1716,275 L1688,288 L1712,222 L1692,240 L1724,165 L1702,188 L1730,120 L1714,146 L1738,78 L1762,146 L1746,120 L1774,188 L1752,165 L1784,240 L1764,222 L1788,288 L1760,275 L1780,336 L1756,326 L1756,400Z"/>
    <path d="M1870,400 L1870,358 L1858,362 L1868,336 L1854,340 L1866,310 L1856,316 L1872,278 L1864,286 L1876,252 L1870,260 L1882,225 L1894,260 L1888,252 L1900,286 L1892,278 L1906,316 L1896,310 L1908,340 L1894,336 L1904,362 L1892,358 L1892,400Z"/>
  </g>

  <!-- Boden-Füllung unten -->
  <rect x="0" y="395" width="1920" height="5" fill="#22c55e" opacity="0.12"/>
</svg>
